<svg xmlns="http://www.w3.org/2000/svg" viewBox="0 0 900 520">
  <defs>
    <style>
      .text-title { font-family: 'Segoe UI', system-ui, sans-serif; font-size: 12px; font-weight: 600; fill: #8a8a8a; text-transform: uppercase; letter-spacing: 0.04em; }
      .text-box { font-family: 'Segoe UI', system-ui, sans-serif; font-size: 10px; font-weight: 600; }
      .text-sub { font-size: 8px; font-weight: 500; fill: #666; }
      .arrow { fill: #999; font-size: 14px; }
      .line { stroke: rgba(0,0,0,0.15); stroke-width: 1.5; fill: none; }
      .dashed-box { stroke: rgba(0,0,0,0.2); stroke-width: 1; fill: none; stroke-dasharray: 4; }
      
      /* Color Palette */
      .bg-target { fill: #e8e6f0; stroke: #c9c4dc; } .c-target { fill: #4a4560; }
      .bg-view { fill: #f0ebe8; stroke: #d9d0c8; } .c-view { fill: #4a423d; }
      .bg-enc { fill: #e2eaf5; stroke: #b8cce8; } .c-enc { fill: #2d3d5c; }
      .bg-proj { fill: #e8e6f0; stroke: #c9c4dc; } .c-proj { fill: #4a4560; }
      .bg-z { fill: #e5f0e3; stroke: #bdd9b8; } .c-z { fill: #2d4a2d; }
      .bg-linear { fill: #fdf6e3; stroke: #eee8d5; } .c-linear { fill: #657b83; }
      .bg-spatial { fill: #e0eef4; stroke: #b8d4e3; } .c-spatial { fill: #2d5a6e; }
      
      /* 修改后的 Temporal Attention 颜色：更亮更清爽 */
      .bg-temp-bright { fill: #f0f7ef; stroke: #c2dec0; } 
      .c-temp-dark { fill: #3a5c3a; }
    </style>
  </defs>

  <rect width="100%" height="100%" fill="#f8f7f4" />

  <text x="40" y="40" class="text-title">Contrastive learning</text>
  <g transform="translate(40, 60)">
    <rect x="0" y="35" width="90" height="40" rx="6" class="bg-target" />
    <text x="45" y="52" text-anchor="middle" class="text-box c-target">Target</text>
    <text x="45" y="65" text-anchor="middle" class="text-sub">binned activity</text>
    
    <text x="100" y="60" class="arrow">→</text>

    <rect x="125" y="10" width="60" height="30" rx="6" class="bg-view" />
    <text x="155" y="30" text-anchor="middle" class="text-box c-view">view₁</text>
    <rect x="125" y="70" width="60" height="30" rx="6" class="bg-view" />
    <text x="155" y="90" text-anchor="middle" class="text-box c-view">view₂</text>
    <line x1="155" y1="40" x2="155" y2="70" class="line" />

    <text x="195" y="60" class="arrow">→</text>

    <rect x="220" y="10" width="70" height="30" rx="6" class="bg-enc" />
    <text x="255" y="30" text-anchor="middle" class="text-box c-enc">Encoder</text>
    <rect x="220" y="70" width="70" height="30" rx="6" class="bg-enc" />
    <text x="255" y="90" text-anchor="middle" class="text-box c-enc">Encoder</text>
    <line x1="255" y1="40" x2="255" y2="70" class="line" />

    <text x="300" y="60" class="arrow">→</text>

    <rect x="325" y="10" width="40" height="30" rx="6" class="bg-enc" />
    <text x="345" y="30" text-anchor="middle" class="text-box c-enc">H₁</text>
    <rect x="325" y="70" width="40" height="30" rx="6" class="bg-enc" />
    <text x="345" y="90" text-anchor="middle" class="text-box c-enc">H₂</text>
    <line x1="345" y1="40" x2="345" y2="70" class="line" />

    <text x="375" y="60" class="arrow">→</text>

    <rect x="400" y="10" width="75" height="30" rx="6" class="bg-proj" />
    <text x="437" y="30" text-anchor="middle" class="text-box c-proj">Projector</text>
    <rect x="400" y="70" width="75" height="30" rx="6" class="bg-proj" />
    <text x="437" y="90" text-anchor="middle" class="text-box c-proj">Projector</text>
    <line x1="437" y1="40" x2="437" y2="70" class="line" />

    <text x="485" y="60" class="arrow">→</text>

    <circle cx="560" cy="55" r="45" fill="#fafaf8" stroke="rgba(0,0,0,0.2)" stroke-width="1.5" />
    <text x="560" y="58" text-anchor="middle" class="text-box" style="fill:#5c4a35; font-size:10px;">VICReg</text>
    <circle cx="525" cy="55" r="12" class="bg-z" />
    <text x="525" y="59" text-anchor="middle" class="text-box c-z" style="font-size:8px;">Z₁</text>
    <circle cx="595" cy="55" r="12" class="bg-z" />
    <text x="595" y="59" text-anchor="middle" class="text-box c-z" style="font-size:8px;">Z₂</text>
  </g>

  <text x="40" y="210" class="text-title">Encoder</text>
  
  <g transform="translate(40, 230)">
    <g>
      <rect x="0" y="5" width="50" height="35" rx="4" class="bg-target" />
      <text x="25" y="26" text-anchor="middle" class="text-box c-target" style="font-size:8px">Activity</text>
      <rect x="0" y="60" width="50" height="35" rx="4" class="bg-target" />
      <text x="25" y="81" text-anchor="middle" class="text-box c-target" style="font-size:8px">Activity</text>
      <text x="25" y="125" text-anchor="middle" style="fill:#999; font-size:16px">⋮</text>
      <rect x="0" y="150" width="50" height="35" rx="4" class="bg-target" />
      <text x="25" y="171" text-anchor="middle" class="text-box c-target" style="font-size:8px">Activity</text>
    </g>

    <g transform="translate(70, 0)">
      <rect x="0" y="5" width="40" height="35" rx="4" class="bg-linear" />
      <text x="20" y="26" text-anchor="middle" class="text-box c-linear" style="font-size:7px; transform: rotate(-90deg); transform-origin: 20px 26px;">Linear</text>
      <rect x="0" y="60" width="40" height="35" rx="4" class="bg-linear" />
      <text x="20" y="81" text-anchor="middle" class="text-box c-linear" style="font-size:7px; transform: rotate(-90deg); transform-origin: 20px 81px;">Linear</text>
      <rect x="0" y="150" width="40" height="35" rx="4" class="bg-linear" />
      <text x="20" y="171" text-anchor="middle" class="text-box c-linear" style="font-size:7px; transform: rotate(-90deg); transform-origin: 20px 171px;">Linear</text>
    </g>

    <g transform="translate(130, 0)">
      <rect x="-10" y="-10" width="100" height="205" rx="6" class="dashed-box" />
      <rect x="0" y="10" width="80" height="30" rx="4" class="bg-temp-bright" />
      <text x="40" y="28" text-anchor="middle" class="text-box c-temp-dark">Temporal Attn</text>
      <rect x="0" y="65" width="80" height="30" rx="4" class="bg-temp-bright" />
      <text x="40" y="83" text-anchor="middle" class="text-box c-temp-dark">Temporal Attn</text>
      <rect x="0" y="155" width="80" height="30" rx="4" class="bg-temp-bright" />
      <text x="40" y="173" text-anchor="middle" class="text-box c-temp-dark">Temporal Attn</text>
    </g>

    <g transform="translate(250, 0)">
      <rect x="0" y="0" width="80" height="195" rx="6" class="bg-spatial" />
      <text x="40" y="92" text-anchor="middle" class="text-box c-spatial">Spatial</text>
      <text x="40" y="107" text-anchor="middle" class="text-box c-spatial">Attention</text>
    </g>

    <g transform="translate(350, 0)">
      <rect x="-10" y="-10" width="100" height="205" rx="6" class="dashed-box" />
      <rect x="0" y="10" width="80" height="30" rx="4" class="bg-temp-bright" />
      <text x="40" y="28" text-anchor="middle" class="text-box c-temp-dark">Temporal Attn</text>
      <rect x="0" y="65" width="80" height="30" rx="4" class="bg-temp-bright" />
      <text x="40" y="83" text-anchor="middle" class="text-box c-temp-dark">Temporal Attn</text>
      <rect x="0" y="155" width="80" height="30" rx="4" class="bg-temp-bright" />
      <text x="40" y="173" text-anchor="middle" class="text-box c-temp-dark">Temporal Attn</text>
    </g>

    <rect x="480" y="5" width="70" height="40" rx="6" class="bg-enc" />
    <text x="515" y="24" text-anchor="middle" class="text-box c-enc">H</text>
    <text x="515" y="36" text-anchor="middle" class="text-sub">(Embedding)</text>

    <g class="line">
      <path d="M50 22 H70 M50 77 H70 M50 167 H70" />
      <path d="M110 22 H130 M110 77 H130 M110 167 H130" />
      <path d="M210 25 H250 M210 80 H250 M210 170 H250" />
      <path d="M330 25 H350 M330 80 H350 M330 170 H350" />
      <path d="M430 25 H480" />
    </g>
  </g>
</svg>